<?xml version="1.0" encoding="UTF-8"?>
<svg id="Layer_1" data-name="Layer 1" xmlns="http://www.w3.org/2000/svg" version="1.1" viewBox="0 0 693.3 693.3">
  <defs>
    <style>
      .cls-1 {
        fill: #5b2487;
        stroke-width: 0px;
      }
    </style>
  </defs>
  <path class="cls-1" d="M293.3,4c-7.9,1.3-8,1.5-7.3,17.1.8,16.9,1.9,32.9,2.5,37.6.4,1.9.9,6.7,1.5,10.8.4,4.1,1.1,8.9,1.5,10.7.3,1.7.9,5.6,1.2,8.5.4,2.9,2,11.3,3.5,18.7,1.6,7.3,2.9,14.3,3.2,15.3,1.2,6.4,5.6,21.3,10.1,35.7l5.3,16.4,4.3-.8c2.4-.4,5.6-.9,7.3-1.1,2.8-.1,3.1-.7,2.3-4.3-2.8-13.6-3.7-57.6-1.6-75.1,3.9-31.7,8.7-48.4,23.1-81.1.8-1.7-13.9-6.7-24.8-8.4-8.4-1.3-25.1-1.5-32-.1ZM240.1,9.6c-11.1,1.5-22.7,5.5-33.2,11.2-8.1,4.4-22.9,14.8-22.9,16.1s3.2,4,7.2,8.1c32.4,34.1,63.9,78.9,86.5,123.3,5.2,10.4,9.7,19.2,9.9,19.5.5.9,10.9-4.1,12.5-6,1.1-1.3-.1-6.5-4.7-20.1-14.9-45.9-29.5-107.7-33.6-143.5-.5-4.3-1.6-8-2.4-8.3-3.9-1.3-11.6-1.5-19.3-.4h0ZM368.7,28c-13.6,26.9-25.6,60.8-28.1,80.1-.4,3.2-1.2,8.3-1.7,11.2-1.2,6.7-.9,33.3.4,44.4.9,7.1,1.5,8.3,3.3,7.5,1.2-.5,3.9-1.2,5.9-1.6,4.3-.7,4.5-1.1,5.5-9.6,4.9-44.5,29.7-82.1,66.5-100.8l9.1-4.7-3.1-3.6c-10.5-12.8-32.1-25.2-50-28.9-4.1-.8-4.4-.5-7.7,6h0ZM156,58.4c-14.9,12.4-23.2,24.1-28.5,40.5-4.7,14.4-4.9,18.7-1.5,19.2,4.1.5,11.6,1.7,16,2.7,14,2.5,45.1,15.5,57.3,23.7,28.3,19.2,47.3,35.7,62.5,54.1,2.1,2.5,4.3,4.7,4.8,4.7s3.5-2,6.5-4.5l5.5-4.5-8.4-16.3c-19.2-36.5-46-71.1-81.1-104.1-10.8-10.1-23.9-20.5-25.6-20.5s-4.3,2.3-7.6,5.1ZM380.7,180.8c-75.1,9.3-149.2,57.6-179.1,116.5-3.5,6.9-7.5,16.5-8.8,21.3s-2.9,10.3-3.5,12.3c-.7,1.9-1.1,10-1.2,18,0,22.9,6.3,38.8,21.1,53.1,16.1,15.6,40.7,25.5,72.8,29.3,7.6.8,37.3,1.1,41.3.3,1.5-.4,6.3-1.1,10.7-1.7,4.4-.5,8.3-1.1,8.7-1.2s3.3-.7,6.7-1.2c7.1-1.2,24.8-5.9,28.7-7.3,1.5-.7,7.7-3.1,14-5.5,47.6-18.4,82.3-48.8,96.3-84.7,3.5-9.1,4.1-12.5,4.3-23.3.1-14-2-21.7-8.7-31.3-12.4-18.1-29.6-27.3-52.5-28.1-23.1-.8-46.8,7.7-66.4,23.7-6.3,5.2-6.4,5.3-13.1,3.9-14.4-3.1-30.4-.3-30.5,5.3,0,.4.8.8,1.7.8,3.7.1,10,1.9,16.5,4.5l6.9,2.8-4,4.1c-5.7,6.1-15.3,20.7-19.5,29.7-3.7,8.1-8.5,24.5-7.6,26.1.9,1.5,5.9-.5,5.9-2.3s14.5-21.6,20.8-27.5c2.9-2.7,9.1-7.9,13.7-11.6l8.5-6.8,4.5,4.9c6.3,6.7,13.1,17.5,14.3,22.1,1.5,5.9,9.2,13.1,13.2,12.3,5.7-1.1,8.8-3.3,11.6-8.8,4.9-9.6.5-20.9-13.3-34.9l-7.5-7.5,4.3-2c2.3-1.2,8.9-3.1,14.8-4.4,12.5-2.7,20.7-1.9,26.3,2.7,3.3,2.7,4,4.1,4.5,10.9.7,9.9-2.8,19.6-11.9,33.2-29.2,43.5-101.3,68.5-149.2,51.6-11.9-4.1-20.9-11.9-26.4-22.3-3.1-5.7-3.5-8.3-3.5-18.7s2.7-22.1,12.4-36.9c14.1-21.5,40.8-42.5,65.5-51.6,7.7-2.8,25.6-7.6,33.3-8.8,19.5-3.2,25.3-3.6,48-3.3,56,.7,57.5.5,65.3-2.4,36.4-14.3,12.9-45.9-41.3-55.6-8.7-1.6-35.3-1.5-48.7.1h0ZM538,281.6c-1.3,4.3-.9,6,3.3,15.1,9.7,20.3,13.3,38.1,12.8,63.3-.7,28.9-6,47.5-19.6,67.6-14.8,22-35.7,37.7-71.6,53.6-20.5,9.1-36,19.6-50.9,34.7-19.9,20.1-34,42.9-40.1,64.9-3.1,10.9-4.3,31.6-2.7,47.2.8,6.9.9,7.3,4.1,6.8,4-.5,4.7-1.3,7.5-10.1,5.5-16.7,16.7-34.8,28.4-45.7,19.2-18,41.9-31.5,96-56.9,31.3-14.7,42.1-21.5,55.9-35.2,14.7-14.8,25.2-31.7,32-51.6,2.7-7.9,3.3-10.3,5.3-20.5.5-2.5.9-13.7.8-24.7,0-17.5-.5-21.6-3.6-32.9-6.8-24.4-18.7-45.2-34.5-60.7-8.5-8.4-19.7-17.7-21.2-17.7s-1.3,1.3-1.9,2.9h0ZM141.2,352.5c-16.9,19.2-28.8,44.5-32,68.5-1.7,13.6-.8,35.7,2,47.6.3.7.8,3.7,1.3,6.7,3.5,17.7,25.1,47.7,46.1,64,10.8,8.3,28.3,16.9,42.7,21.2,38.3,11.2,64,31.3,81.7,63.7,1.9,3.3,3.1,6.4,2.8,6.8-.4.4,1.2,1.1,3.5,1.6,2.3.5,4.5.5,4.9.1,1.7-1.6,1.2-16.5-1.1-27.9-5.6-29.7-17.2-51.9-36.9-70.4-11.3-10.8-20.9-17.2-37.1-24.7s-25.5-13.6-36.7-24.3c-15.1-14.1-27.1-34-32.9-54.5-5.7-19.5-7.9-41.6-5.5-54.5.7-3.6,1.6-8.3,2-10.4.3-2.1,1.2-4.9,2-6.4,1.3-2.4.4-11.3-1.3-12.1-.4-.3-2.9,2-5.6,4.9h0Z"/>
  <path class="cls-1" d="M368.5,440.1c-2.8.9-20.7,4.4-30.5,5.9-2.9.5-7.1,1.1-9.1,1.5-2.1.3-9.6.9-16.7,1.3-7.1.3-12.9.8-13.2,1.1-2.1,2.1-3.2,77.7-1.3,98.1,4.3,47.6,18.9,94.3,39.1,124.8,11.7,17.6,10,16.4,23.3,16.4s11.9-.3,11.9-.7-2.4-5.6-5.2-11.6c-13.7-28.9-18.7-55.2-18-96.3.3-13.2.8-26.1,1.1-28.7.4-2.5,1.1-7.7,1.6-11.3,1.2-10.8,7.1-38.9,10.7-52,3.5-12.5,12-38.4,14-42.3,2.5-4.7-2-8.4-7.6-6.3h0Z"/>
</svg>